<mxfile host="Electron" agent="Mozilla/5.0 (Windows NT 10.0; Win64; x64) AppleWebKit/537.36 (KHTML, like Gecko) draw.io/24.7.5 Chrome/126.0.6478.183 Electron/31.3.0 Safari/537.36" version="24.7.5">
  <diagram name="Page-1" id="GGKtzWUXEux6h5hyodcQ">
    <mxGraphModel dx="2074" dy="836" grid="1" gridSize="10" guides="1" tooltips="1" connect="1" arrows="1" fold="1" page="1" pageScale="1" pageWidth="827" pageHeight="1169" math="0" shadow="0">
      <root>
        <mxCell id="0" />
        <mxCell id="1" parent="0" />
        <mxCell id="f8cxn0Wl8pAEAEjFYCCp-5" style="edgeStyle=orthogonalEdgeStyle;rounded=0;orthogonalLoop=1;jettySize=auto;html=1;entryX=0;entryY=0.5;entryDx=0;entryDy=0;" parent="1" source="f8cxn0Wl8pAEAEjFYCCp-1" target="f8cxn0Wl8pAEAEjFYCCp-2" edge="1">
          <mxGeometry relative="1" as="geometry" />
        </mxCell>
        <mxCell id="f8cxn0Wl8pAEAEjFYCCp-6" value="STREAM&amp;nbsp;" style="edgeLabel;html=1;align=center;verticalAlign=middle;resizable=0;points=[];" parent="f8cxn0Wl8pAEAEjFYCCp-5" vertex="1" connectable="0">
          <mxGeometry x="-0.1649" y="-3" relative="1" as="geometry">
            <mxPoint x="9" y="-23" as="offset" />
          </mxGeometry>
        </mxCell>
        <mxCell id="f8cxn0Wl8pAEAEjFYCCp-1" value="Sidecar" style="rounded=1;whiteSpace=wrap;html=1;" parent="1" vertex="1">
          <mxGeometry x="40" y="170" width="120" height="60" as="geometry" />
        </mxCell>
        <mxCell id="f8cxn0Wl8pAEAEjFYCCp-7" style="edgeStyle=orthogonalEdgeStyle;rounded=0;orthogonalLoop=1;jettySize=auto;html=1;" parent="1" source="f8cxn0Wl8pAEAEjFYCCp-2" target="f8cxn0Wl8pAEAEjFYCCp-3" edge="1">
          <mxGeometry relative="1" as="geometry" />
        </mxCell>
        <mxCell id="f8cxn0Wl8pAEAEjFYCCp-8" value="SendData" style="edgeLabel;html=1;align=center;verticalAlign=middle;resizable=0;points=[];" parent="f8cxn0Wl8pAEAEjFYCCp-7" vertex="1" connectable="0">
          <mxGeometry x="-0.2959" relative="1" as="geometry">
            <mxPoint x="37" y="-10" as="offset" />
          </mxGeometry>
        </mxCell>
        <mxCell id="f8cxn0Wl8pAEAEjFYCCp-2" value="Python service 1&amp;nbsp;" style="rounded=1;whiteSpace=wrap;html=1;" parent="1" vertex="1">
          <mxGeometry x="354" y="170" width="120" height="60" as="geometry" />
        </mxCell>
        <mxCell id="f8cxn0Wl8pAEAEjFYCCp-13" style="edgeStyle=orthogonalEdgeStyle;rounded=0;orthogonalLoop=1;jettySize=auto;html=1;entryX=0.5;entryY=1;entryDx=0;entryDy=0;" parent="1" source="f8cxn0Wl8pAEAEjFYCCp-3" target="f8cxn0Wl8pAEAEjFYCCp-1" edge="1">
          <mxGeometry relative="1" as="geometry">
            <Array as="points">
              <mxPoint x="730" y="320" />
              <mxPoint x="100" y="320" />
            </Array>
          </mxGeometry>
        </mxCell>
        <mxCell id="f8cxn0Wl8pAEAEjFYCCp-3" value="Python service 2" style="rounded=1;whiteSpace=wrap;html=1;" parent="1" vertex="1">
          <mxGeometry x="670" y="170" width="120" height="60" as="geometry" />
        </mxCell>
        <mxCell id="f8cxn0Wl8pAEAEjFYCCp-9" value="Type:&lt;br&gt;&lt;div style=&quot;color: rgb(204, 204, 204); background-color: rgb(31, 31, 31); font-family: Consolas, &amp;quot;Courier New&amp;quot;, monospace; font-size: 14px; line-height: 19px; white-space-collapse: preserve;&quot;&gt;&lt;span style=&quot;color: #4ec9b0;&quot;&gt;SideCarMessage&lt;/span&gt;&lt;/div&gt;" style="text;html=1;align=center;verticalAlign=middle;resizable=0;points=[];autosize=1;strokeColor=none;fillColor=none;" parent="1" vertex="1">
          <mxGeometry x="145" y="208" width="130" height="50" as="geometry" />
        </mxCell>
        <mxCell id="f8cxn0Wl8pAEAEjFYCCp-10" value="Type:&lt;br&gt;&lt;div style=&quot;color: rgb(204, 204, 204); background-color: rgb(31, 31, 31); font-family: Consolas, &amp;quot;Courier New&amp;quot;, monospace; font-size: 14px; line-height: 19px; white-space-collapse: preserve;&quot;&gt;&lt;div style=&quot;line-height: 19px;&quot;&gt;&lt;span style=&quot;color: #4ec9b0;&quot;&gt;MicroserviceCommunication&lt;/span&gt;&lt;/div&gt;&lt;/div&gt;" style="text;html=1;align=center;verticalAlign=middle;resizable=0;points=[];autosize=1;strokeColor=none;fillColor=none;" parent="1" vertex="1">
          <mxGeometry x="465" y="208" width="220" height="50" as="geometry" />
        </mxCell>
        <mxCell id="f8cxn0Wl8pAEAEjFYCCp-11" value="&lt;b&gt;NOW&lt;/b&gt;" style="text;html=1;align=center;verticalAlign=middle;whiteSpace=wrap;rounded=0;" parent="1" vertex="1">
          <mxGeometry x="60" y="80" width="60" height="30" as="geometry" />
        </mxCell>
        <mxCell id="f8cxn0Wl8pAEAEjFYCCp-12" value="" style="endArrow=none;html=1;rounded=0;" parent="1" edge="1">
          <mxGeometry width="50" height="50" relative="1" as="geometry">
            <mxPoint x="40" y="390" as="sourcePoint" />
            <mxPoint x="800" y="390" as="targetPoint" />
          </mxGeometry>
        </mxCell>
        <mxCell id="f8cxn0Wl8pAEAEjFYCCp-14" value="SendData" style="edgeLabel;html=1;align=center;verticalAlign=middle;resizable=0;points=[];" parent="1" vertex="1" connectable="0">
          <mxGeometry x="405" y="306" as="geometry" />
        </mxCell>
        <mxCell id="f8cxn0Wl8pAEAEjFYCCp-15" value="Type:&lt;br&gt;&lt;div style=&quot;color: rgb(204, 204, 204); background-color: rgb(31, 31, 31); font-family: Consolas, &amp;quot;Courier New&amp;quot;, monospace; font-size: 14px; line-height: 19px; white-space-collapse: preserve;&quot;&gt;&lt;div style=&quot;line-height: 19px;&quot;&gt;&lt;span style=&quot;color: #4ec9b0;&quot;&gt;MicroserviceCommunication&lt;/span&gt;&lt;/div&gt;&lt;/div&gt;" style="text;html=1;align=center;verticalAlign=middle;resizable=0;points=[];autosize=1;strokeColor=none;fillColor=none;" parent="1" vertex="1">
          <mxGeometry x="290" y="324" width="220" height="50" as="geometry" />
        </mxCell>
        <mxCell id="f8cxn0Wl8pAEAEjFYCCp-16" style="edgeStyle=orthogonalEdgeStyle;rounded=0;orthogonalLoop=1;jettySize=auto;html=1;entryX=0;entryY=0.5;entryDx=0;entryDy=0;" parent="1" source="f8cxn0Wl8pAEAEjFYCCp-18" target="f8cxn0Wl8pAEAEjFYCCp-21" edge="1">
          <mxGeometry relative="1" as="geometry" />
        </mxCell>
        <mxCell id="f8cxn0Wl8pAEAEjFYCCp-18" value="Sidecar" style="rounded=1;whiteSpace=wrap;html=1;" parent="1" vertex="1">
          <mxGeometry x="40" y="570" width="120" height="60" as="geometry" />
        </mxCell>
        <mxCell id="f8cxn0Wl8pAEAEjFYCCp-19" style="edgeStyle=orthogonalEdgeStyle;rounded=0;orthogonalLoop=1;jettySize=auto;html=1;" parent="1" source="f8cxn0Wl8pAEAEjFYCCp-21" target="f8cxn0Wl8pAEAEjFYCCp-23" edge="1">
          <mxGeometry relative="1" as="geometry" />
        </mxCell>
        <mxCell id="f8cxn0Wl8pAEAEjFYCCp-20" value="SendData" style="edgeLabel;html=1;align=center;verticalAlign=middle;resizable=0;points=[];" parent="f8cxn0Wl8pAEAEjFYCCp-19" vertex="1" connectable="0">
          <mxGeometry x="-0.2959" relative="1" as="geometry">
            <mxPoint x="37" y="-10" as="offset" />
          </mxGeometry>
        </mxCell>
        <mxCell id="f8cxn0Wl8pAEAEjFYCCp-21" value="Python service 1&amp;nbsp;" style="rounded=1;whiteSpace=wrap;html=1;" parent="1" vertex="1">
          <mxGeometry x="354" y="570" width="120" height="60" as="geometry" />
        </mxCell>
        <mxCell id="f8cxn0Wl8pAEAEjFYCCp-22" style="edgeStyle=orthogonalEdgeStyle;rounded=0;orthogonalLoop=1;jettySize=auto;html=1;entryX=0.5;entryY=1;entryDx=0;entryDy=0;" parent="1" source="f8cxn0Wl8pAEAEjFYCCp-23" target="f8cxn0Wl8pAEAEjFYCCp-18" edge="1">
          <mxGeometry relative="1" as="geometry">
            <Array as="points">
              <mxPoint x="730" y="720" />
              <mxPoint x="100" y="720" />
            </Array>
          </mxGeometry>
        </mxCell>
        <mxCell id="f8cxn0Wl8pAEAEjFYCCp-23" value="Python service 2" style="rounded=1;whiteSpace=wrap;html=1;" parent="1" vertex="1">
          <mxGeometry x="670" y="570" width="120" height="60" as="geometry" />
        </mxCell>
        <mxCell id="f8cxn0Wl8pAEAEjFYCCp-24" value="Type:&lt;br&gt;&lt;div style=&quot;white-space-collapse: preserve; color: rgb(204, 204, 204); background-color: rgb(31, 31, 31); font-family: Consolas, &amp;quot;Courier New&amp;quot;, monospace; font-size: 14px; line-height: 19px;&quot;&gt;&lt;div style=&quot;line-height: 19px;&quot;&gt;&lt;span style=&quot;color: rgb(78, 201, 176);&quot;&gt;MicroserviceCommunication&lt;/span&gt;&lt;/div&gt;&lt;/div&gt;" style="text;html=1;align=center;verticalAlign=middle;resizable=0;points=[];autosize=1;strokeColor=none;fillColor=none;" parent="1" vertex="1">
          <mxGeometry x="145" y="608" width="220" height="50" as="geometry" />
        </mxCell>
        <mxCell id="f8cxn0Wl8pAEAEjFYCCp-25" value="Type:&lt;br&gt;&lt;div style=&quot;color: rgb(204, 204, 204); background-color: rgb(31, 31, 31); font-family: Consolas, &amp;quot;Courier New&amp;quot;, monospace; font-size: 14px; line-height: 19px; white-space-collapse: preserve;&quot;&gt;&lt;div style=&quot;line-height: 19px;&quot;&gt;&lt;span style=&quot;color: #4ec9b0;&quot;&gt;MicroserviceCommunication&lt;/span&gt;&lt;/div&gt;&lt;/div&gt;" style="text;html=1;align=center;verticalAlign=middle;resizable=0;points=[];autosize=1;strokeColor=none;fillColor=none;" parent="1" vertex="1">
          <mxGeometry x="465" y="608" width="220" height="50" as="geometry" />
        </mxCell>
        <mxCell id="f8cxn0Wl8pAEAEjFYCCp-26" value="&lt;b&gt;OR&lt;/b&gt;&lt;b style=&quot;background-color: initial;&quot;&gt;???&lt;/b&gt;" style="text;html=1;align=center;verticalAlign=middle;whiteSpace=wrap;rounded=0;" parent="1" vertex="1">
          <mxGeometry x="60" y="480" width="60" height="30" as="geometry" />
        </mxCell>
        <mxCell id="f8cxn0Wl8pAEAEjFYCCp-27" value="" style="endArrow=none;html=1;rounded=0;" parent="1" edge="1">
          <mxGeometry width="50" height="50" relative="1" as="geometry">
            <mxPoint x="40" y="790" as="sourcePoint" />
            <mxPoint x="800" y="790" as="targetPoint" />
          </mxGeometry>
        </mxCell>
        <mxCell id="f8cxn0Wl8pAEAEjFYCCp-28" value="SendData" style="edgeLabel;html=1;align=center;verticalAlign=middle;resizable=0;points=[];" parent="1" vertex="1" connectable="0">
          <mxGeometry x="405" y="706" as="geometry" />
        </mxCell>
        <mxCell id="f8cxn0Wl8pAEAEjFYCCp-29" value="Type:&lt;br&gt;&lt;div style=&quot;color: rgb(204, 204, 204); background-color: rgb(31, 31, 31); font-family: Consolas, &amp;quot;Courier New&amp;quot;, monospace; font-size: 14px; line-height: 19px; white-space-collapse: preserve;&quot;&gt;&lt;div style=&quot;line-height: 19px;&quot;&gt;&lt;span style=&quot;color: #4ec9b0;&quot;&gt;MicroserviceCommunication&lt;/span&gt;&lt;/div&gt;&lt;/div&gt;" style="text;html=1;align=center;verticalAlign=middle;resizable=0;points=[];autosize=1;strokeColor=none;fillColor=none;" parent="1" vertex="1">
          <mxGeometry x="290" y="724" width="220" height="50" as="geometry" />
        </mxCell>
        <mxCell id="f8cxn0Wl8pAEAEjFYCCp-30" value="SendData" style="edgeLabel;html=1;align=center;verticalAlign=middle;resizable=0;points=[];" parent="1" vertex="1" connectable="0">
          <mxGeometry x="250" y="585" as="geometry" />
        </mxCell>
      </root>
    </mxGraphModel>
  </diagram>
</mxfile>
